<svg width="48" height="48" viewBox="0 0 48 48" fill="none" xmlns="http://www.w3.org/2000/svg">
<g clip-path="url(#clip0_92_2710)">
<path fill-rule="evenodd" clip-rule="evenodd" d="M14.316 16.104C12.479 14.764 10.13 14.02 7.583 14.02C5.321 14.02 3.219 14.609 1.483 15.68L0 10.143L37.861 0L41.628 14.063C41.2775 14.033 40.9258 14.018 40.574 14.018C38.012 14.018 35.65 14.77 33.803 16.127L34.5 14.324H27.189L24.627 23.095C24.349 24.045 24.062 25.077 24.062 25.077L23.505 23.095L20.945 14.325H13.629L14.316 16.104ZM36.97 24.127C36.97 22.077 38.352 20.367 40.576 20.367C42.287 20.367 43.495 21.38 43.963 22.781L44.09 23.253C44.148 23.533 44.182 23.823 44.182 24.126C44.182 26.326 42.698 27.836 40.576 27.836C38.454 27.836 36.97 26.326 36.97 24.126V24.127ZM11.189 24.127C11.189 22.077 9.805 20.367 7.583 20.367C5.359 20.367 3.973 22.077 3.973 24.127C3.973 26.327 5.462 27.837 7.583 27.837C9.705 27.837 11.189 26.327 11.189 24.127ZM30.055 25.817C30.89 30.921 35.287 33.918 40.576 33.918C42.785 33.918 44.841 33.398 46.548 32.418L48.004 37.858L10.143 48L6.357 33.865C6.758 33.901 7.171 33.92 7.583 33.92C12.853 33.92 17.242 30.94 18.098 25.863L21.098 33.616H27.032L30.055 25.817Z" fill="#0A9828"/>
</g>
<defs>
<clipPath id="clip0_92_2710">
<rect width="48" height="48" fill="white"/>
</clipPath>
</defs>
</svg>
