<svg width="48" height="48" viewBox="0 0 48 48" fill="none" xmlns="http://www.w3.org/2000/svg">
<path d="M31.0673 16.8879C30.8456 17.0146 30.7189 17.1413 30.5288 17.2363C27.3932 19.0417 24.2575 20.847 21.1219 22.6841C20.5201 23.0325 20.0133 23.0325 19.4432 22.6841C17.2261 21.3855 15.0406 20.1185 12.7918 18.8516C12.2851 18.5666 12.0633 18.1865 12.0633 17.6164C12.0633 12.8337 12.0633 8.01938 12.0633 3.23673C12.0633 2.09649 12.8235 1.68474 13.8054 2.25485C18.4297 4.9154 23.0539 7.60763 27.6782 10.2682C30.3388 11.8202 33.031 13.3721 35.6916 14.8925C36.2617 15.2092 36.5151 15.6526 36.5151 16.3178C36.5151 21.3855 36.4834 26.4849 36.5151 31.5526C36.5151 32.281 36.2617 32.7245 35.6282 33.1045C30.3071 36.1452 25.0177 39.2175 19.6966 42.2898C17.7328 43.43 15.7691 44.5703 13.8054 45.7105C13.647 45.8055 13.457 45.9005 13.2669 45.9639C12.7285 46.1222 12.1267 45.7422 12.0317 45.172C12 44.982 12 44.8236 12 44.6336C12 39.9143 12 35.2267 12 30.5073C12 29.8105 12.2534 29.3671 12.8552 29.0187C19.4115 25.2496 25.9362 21.4805 32.4609 17.7114C32.6193 17.6164 32.7776 17.553 32.9043 17.4263C33.3161 17.1413 33.3161 16.7612 32.8726 16.5078C32.3975 16.2227 31.9224 15.9377 31.4473 15.6843C26.348 12.5486 21.1219 9.53969 15.8958 6.49906C15.8325 6.46739 15.7374 6.40404 15.6741 6.37237C15.1673 6.11898 14.8823 6.30903 14.8189 6.87914C14.7872 7.35424 15.009 7.57595 15.389 7.79766C18.4297 9.53969 21.4386 11.2817 24.4792 13.0237C26.538 14.1957 28.5651 15.3992 30.6238 16.5711C30.7505 16.6662 30.8772 16.7612 31.0673 16.8879Z" fill="url(#paint0_linear_107_2712)"/>
<defs>
<linearGradient id="paint0_linear_107_2712" x1="15" y1="12" x2="30.5" y2="43.5" gradientUnits="userSpaceOnUse">
<stop stop-color="#D30059"/>
<stop offset="1" stop-color="#643182"/>
</linearGradient>
</defs>
</svg>
