<svg width="55" height="55" viewBox="0 0 55 55" fill="none" xmlns="http://www.w3.org/2000/svg">
<g clip-path="url(#clip0_648_2)">
<rect width="55" height="55" rx="18" fill="#EEEEEE"/>
<path d="M39.6043 48.165C38.2065 48.165 36.764 47.9717 35.2769 47.585C33.7898 47.2281 32.1391 46.5738 30.3249 45.622C28.5404 44.6703 26.5179 43.3171 24.2576 41.5623C21.7295 41.2054 19.4691 40.3429 17.4764 38.9747C15.5135 37.6066 13.9669 35.8519 12.8367 33.7104C11.7362 31.569 11.186 29.1748 11.186 26.5278C11.186 24.3269 11.5727 22.3045 12.346 20.4605C13.1192 18.6165 14.1899 17.0253 15.5581 15.6869C16.9559 14.3188 18.5917 13.2629 20.4655 12.5194C22.3392 11.7461 24.3765 11.3595 26.5774 11.3595C28.8081 11.3595 30.8602 11.7461 32.734 12.5194C34.6077 13.2629 36.2286 14.3188 37.5968 15.6869C38.9946 17.0253 40.0802 18.6165 40.8535 20.4605C41.6268 22.3045 42.0134 24.3269 42.0134 26.5278C42.0134 28.8477 41.5822 30.9742 40.7197 32.9074C39.8571 34.8406 38.6526 36.5062 37.106 37.904C35.5595 39.2722 33.7601 40.2834 31.7079 40.9377C34.1765 43.0196 36.2286 44.4324 37.8644 45.1759C39.5002 45.9492 40.9725 46.3359 42.2811 46.3359C42.9354 46.3359 43.5005 46.2912 43.9764 46.202C44.482 46.1128 44.8984 46.0236 45.2255 45.9343V46.9604C44.5712 47.2876 43.7831 47.5701 42.8611 47.8081C41.9391 48.046 40.8535 48.165 39.6043 48.165ZM27.2912 39.3763C28.7783 39.3763 30.087 38.9004 31.2171 37.9487C32.3771 36.9969 33.2693 35.6585 33.8939 33.9335C34.5482 32.2085 34.8754 30.186 34.8754 27.8662C34.8754 25.011 34.4739 22.5126 33.6708 20.3712C32.8976 18.2298 31.8417 16.5792 30.5033 15.4192C29.165 14.2295 27.663 13.6347 25.9975 13.6347C24.5104 13.6347 23.1869 14.1106 22.0269 15.0623C20.867 15.9843 19.945 17.3078 19.2609 19.0329C18.6066 20.7579 18.2795 22.7803 18.2795 25.1002C18.2795 27.9554 18.681 30.4537 19.484 32.5951C20.287 34.7365 21.3726 36.4021 22.7407 37.5918C24.1088 38.7814 25.6257 39.3763 27.2912 39.3763Z" fill="black"/>
</g>
<defs>
<clipPath id="clip0_648_2">
<rect width="55" height="55" rx="18" fill="white"/>
</clipPath>
</defs>
</svg>
