<svg width="40" height="40" viewBox="0 0 40 40" fill="none" xmlns="http://www.w3.org/2000/svg">
<path d="M27.9591 0L26.1127 17.6379L22.9631 2.76753L13.0885 4.8751L16.2366 19.7444L2 22.7817L4.51456 34.6595L29.55 40L35.2753 27.0931L38 1.05996L27.9591 0ZM20.0482 25.5868C19.532 26.0614 18.8496 26.0177 18.1253 25.7757C17.4026 25.5348 17.0812 24.6571 17.3551 23.5961C17.5591 22.8085 18.5196 22.6901 19 22.6818C19.1826 22.6787 19.3622 22.7158 19.5279 22.791C19.8676 22.9454 20.443 23.2749 20.5598 23.7773C20.7281 24.5021 20.5659 25.1106 20.0497 25.5853L20.0482 25.5868ZM27.296 26.4053C26.9212 27.0591 25.9368 27.1456 24.9682 26.6699C24.3153 26.3487 24.3204 25.5312 24.3918 25.0329C24.4297 24.7611 24.5389 24.5044 24.708 24.2895C24.9411 23.993 25.3303 23.6064 25.7802 23.5945C26.5116 23.575 27.141 23.9045 27.4965 24.5006C27.8535 25.0947 27.675 25.75 27.2991 26.4053H27.296Z" fill="#00CDBC"/>
</svg>
